<?xml version="1.0" standalone="no"?>
<!DOCTYPE svg PUBLIC "-//W3C//DTD SVG 20010904//EN"
 "http://www.w3.org/TR/2001/REC-SVG-20010904/DTD/svg10.dtd">
<svg version="1.0" xmlns="http://www.w3.org/2000/svg"
 width="590.000000pt" height="292.000000pt" viewBox="0 0 590.000000 292.000000"
 preserveAspectRatio="xMidYMid meet">

<g transform="translate(0.000000,292.000000) scale(0.100000,-0.100000)"
fill="#000000" stroke="none">
<path d="M2590 2884 c-474 -56 -888 -193 -1203 -400 l-101 -66 93 -60 c319
-205 731 -343 1191 -400 139 -17 643 -17 770 1 490 66 893 205 1208 416 l63
43 -48 34 c-79 57 -165 106 -305 172 -291 138 -570 215 -953 260 -162 20 -551
20 -715 0z m544 -68 c69 -34 184 -142 240 -226 l36 -55 -42 -9 c-24 -5 -212
-10 -418 -10 -206 0 -394 5 -418 10 l-43 9 41 60 c83 120 190 211 283 241 27
9 80 13 152 11 99 -2 116 -5 169 -31z m-523 -63 c-42 -43 -97 -108 -121 -145
-25 -38 -51 -68 -60 -68 -28 0 -256 39 -281 48 -23 9 -21 11 41 51 133 87 384
189 467 190 32 1 32 1 -46 -76z m756 46 c124 -40 241 -94 335 -154 69 -45 71
-48 49 -57 -25 -9 -253 -48 -282 -48 -9 0 -33 28 -55 63 -21 34 -75 99 -120
145 -79 79 -81 82 -53 82 16 0 73 -14 126 -31z m-1037 -23 c0 -2 -24 -15 -53
-30 -30 -14 -91 -51 -137 -82 l-83 -55 -71 17 c-39 9 -77 20 -85 24 -16 9 156
68 304 104 101 25 125 29 125 22z m1363 -21 c155 -39 322 -96 306 -105 -8 -4
-46 -16 -86 -25 l-72 -17 -51 37 c-28 20 -90 59 -138 86 -48 27 -81 49 -74 49
7 0 59 -11 115 -25z m-1780 -151 c51 -15 93 -28 95 -29 1 -1 -30 -33 -69 -71
-59 -57 -157 -175 -222 -268 -12 -18 -18 -16 -118 37 -141 74 -210 117 -204
127 10 17 173 110 296 170 68 33 125 60 127 60 2 0 45 -12 95 -26z m2331 -50
c120 -60 266 -147 266 -158 0 -12 -308 -182 -315 -174 -1 2 -36 48 -78 103
-41 55 -109 133 -151 174 -42 40 -75 75 -74 76 14 12 179 52 198 48 14 -2 83
-33 154 -69z m-1971 -29 c76 -13 141 -25 143 -28 3 -3 -6 -27 -19 -54 -33 -65
-90 -220 -117 -318 -12 -44 -23 -81 -24 -82 -1 -2 -62 13 -134 32 -145 38
-362 115 -362 128 0 23 106 154 203 251 102 102 110 108 140 102 18 -4 94 -18
170 -31z m1647 -52 c86 -81 220 -245 220 -269 0 -16 -280 -113 -420 -145 -25
-5 -52 -12 -61 -15 -12 -3 -20 11 -34 63 -28 106 -84 261 -117 326 -35 70 -33
72 56 82 34 3 99 15 146 25 47 10 93 18 102 19 9 1 58 -38 108 -86z m-970 4
c190 0 376 4 413 10 l68 10 39 -78 c40 -78 113 -283 125 -351 8 -40 16 -36
-111 -58 -221 -38 -586 -51 -824 -30 -121 11 -349 45 -357 53 -14 15 78 290
136 404 l30 60 68 -10 c37 -6 223 -10 413 -10z"/>
<path d="M45 1696 c-33 -33 -37 -67 -33 -269 l3 -177 28 -27 27 -28 261 -3
260 -3 35 35 36 36 -4 99 c-3 106 -15 133 -65 152 -17 6 -23 17 -23 40 0 25
-12 43 -57 89 -32 32 -68 62 -80 69 -14 7 -85 11 -193 11 -167 0 -171 -1 -195
-24z m376 -117 c69 -55 60 -59 -131 -59 l-170 0 0 45 0 45 131 0 131 0 39 -31z
m129 -224 l0 -45 -215 0 -215 0 0 45 0 45 215 0 215 0 0 -45z"/>
<path d="M755 1695 c-25 -24 -25 -24 -25 -235 0 -210 0 -211 24 -235 30 -30
64 -39 98 -26 16 6 90 89 189 210 152 189 164 201 195 201 l34 0 0 -210 c0
-140 4 -210 10 -210 21 0 70 30 80 49 6 12 10 103 10 224 0 203 0 204 -25 231
-22 24 -30 26 -107 25 l-83 0 -150 -187 c-82 -102 -156 -187 -162 -190 -10 -3
-13 39 -13 187 l0 191 -25 0 c-14 0 -37 -11 -50 -25z"/>
<path d="M1476 1689 l-26 -31 0 -194 c0 -212 6 -240 55 -262 40 -19 497 -17
534 2 28 15 51 53 51 86 0 19 -9 20 -270 20 l-270 0 0 150 0 150 181 0 181 0
39 -31 c26 -20 39 -39 39 -55 0 -22 4 -24 50 -24 l50 0 0 44 c0 41 -4 47 -70
110 l-70 66 -224 0 -224 0 -26 -31z"/>
<path d="M2269 1622 l-101 -98 4 -143 c3 -142 3 -143 31 -167 15 -13 38 -24
51 -24 19 0 22 4 18 30 -2 16 -1 41 2 55 l6 25 215 0 215 0 0 -55 c0 -49 2
-55 21 -55 31 0 57 17 74 50 12 23 15 69 15 215 0 197 -7 232 -49 255 -12 6
-99 10 -211 10 l-191 0 -100 -98z m441 -107 l0 -95 -215 0 -215 0 0 33 c-1 27
10 42 67 94 l68 62 148 1 147 0 0 -95z"/>
<path d="M2909 1691 c-17 -17 -29 -40 -29 -55 l0 -26 135 0 135 0 0 -210 c0
-203 1 -210 20 -210 11 0 34 13 52 29 l33 29 3 181 4 181 133 0 133 0 -9 38
c-16 71 -18 72 -316 72 l-265 0 -29 -29z"/>
<path d="M3836 1698 c-15 -13 -29 -38 -32 -55 l-6 -33 135 0 c117 0 136 -2
141 -17 4 -9 6 -102 6 -207 -2 -214 1 -222 62 -167 l33 29 3 181 3 181 135 0
c114 0 134 2 134 15 0 25 -28 73 -49 85 -12 6 -121 10 -280 10 -255 0 -260 0
-285 -22z"/>
<path d="M4549 1691 c-17 -17 -29 -40 -29 -55 l0 -26 325 0 c287 0 325 2 325
15 0 25 -28 73 -49 85 -12 6 -121 10 -281 10 l-262 0 -29 -29z"/>
<path d="M5339 1623 l-99 -96 0 -135 0 -134 34 -34 c19 -19 43 -34 55 -34 20
0 21 4 21 148 l0 148 63 62 63 62 152 0 152 0 0 -210 c0 -203 1 -210 20 -210
11 0 34 13 52 29 l33 29 3 179 c4 204 0 236 -33 269 -24 24 -27 24 -220 24
l-196 0 -100 -97z"/>
<path d="M3555 1511 c-32 -7 -75 -60 -75 -93 0 -18 8 -19 155 -16 150 3 155 4
180 28 13 14 27 39 31 57 l6 31 -133 0 c-74 0 -147 -3 -164 -7z"/>
<path d="M4595 1512 c-62 -21 -75 -48 -75 -156 0 -164 4 -166 319 -166 132 0
251 4 265 10 28 10 68 66 64 88 -3 11 -52 14 -264 13 -289 -2 -288 -2 -282 61
l3 33 208 3 207 2 0 59 0 59 -212 0 c-117 0 -222 -3 -233 -6z"/>
<path d="M2765 969 c-421 -19 -865 -134 -1202 -309 -99 -52 -273 -157 -273
-165 0 -9 186 -123 274 -169 886 -458 2177 -410 2960 108 l89 59 -24 18 c-52
39 -233 142 -335 190 -421 199 -949 294 -1489 268z m505 -40 c131 -12 303 -39
319 -49 10 -5 9 -21 -3 -67 -27 -102 -66 -214 -109 -306 l-41 -88 -100 8
c-131 10 -641 10 -772 0 l-101 -8 -40 88 c-38 83 -103 271 -117 339 -9 39 -12
38 167 65 237 35 546 42 797 18z m-1000 -101 c21 -89 80 -259 114 -334 20 -42
35 -78 34 -80 -2 -1 -75 -14 -163 -29 -88 -15 -163 -29 -168 -32 -12 -7 -141
112 -210 196 -68 81 -122 159 -116 165 23 23 420 149 486 155 7 1 17 -18 23
-41z m1428 31 c165 -39 442 -132 442 -149 0 -42 -296 -367 -325 -356 -8 3 -85
17 -172 31 -87 15 -159 28 -161 30 -2 2 8 25 21 52 34 67 91 222 118 321 12
45 24 82 26 82 2 0 25 -5 51 -11z m-1957 -216 c51 -76 169 -211 221 -256 49
-41 59 -57 34 -57 -7 0 -51 -11 -97 -24 l-82 -24 -103 48 c-95 44 -262 138
-308 173 -19 14 -18 16 25 43 50 32 260 143 271 144 4 0 22 -21 39 -47z m2542
6 c94 -48 215 -118 222 -130 8 -12 -165 -115 -300 -180 l-121 -57 -83 24 c-46
13 -90 24 -97 24 -24 0 -16 14 36 58 54 46 167 178 219 255 17 26 34 47 37 47
2 0 41 -19 87 -41z m-1101 -249 c96 -6 187 -14 202 -18 l28 -8 -59 -79 c-65
-88 -130 -150 -201 -191 -56 -33 -165 -46 -283 -34 -74 7 -87 12 -151 55 -71
49 -137 118 -195 203 l-31 47 28 8 c84 22 425 31 662 17z m-693 -93 c50 -75
137 -171 180 -200 91 -61 -137 -6 -309 74 -109 51 -234 129 -223 139 4 5 73
19 153 33 80 14 146 25 147 26 1 1 25 -32 52 -72z m1141 42 c69 -12 129 -24
133 -28 16 -16 -194 -136 -316 -181 -67 -25 -196 -60 -220 -60 -13 0 5 22 56
73 41 39 97 106 125 148 42 63 55 76 74 73 13 -2 79 -13 148 -25z m-1369 -173
c46 -25 79 -46 74 -46 -42 -1 -466 123 -445 130 3 1 41 12 85 24 l80 22 61
-43 c33 -23 98 -62 145 -87z m1742 84 c4 -4 -43 -23 -105 -43 -119 -39 -319
-89 -326 -83 -2 2 29 21 68 42 40 20 102 58 138 84 l67 47 75 -20 c41 -11 79
-23 83 -27z"/>
</g>
</svg>
